<svg width="411" height="36" viewBox="0 0 411 36" fill="none" xmlns="http://www.w3.org/2000/svg">
<path d="M8.151 28.275H0V26.871L2.964 26.442V2.301L0 1.833V0.428999H8.151V1.833L5.187 2.301V26.442L8.151 26.871V28.275Z" fill="black"/>
<path d="M26.1123 28.275L16.0893 2.808H15.9723C16.0243 3.276 16.0503 3.809 16.0503 4.407C16.0763 4.979 16.0893 5.59 16.0893 6.24C16.1153 6.864 16.1283 7.514 16.1283 8.19V28.275H14.0223V0.428999H17.4153L27.0093 24.843H27.1653L36.8763 0.428999H40.1913V28.275H37.9683V7.956C37.9683 7.384 37.9683 6.799 37.9683 6.201C37.9943 5.603 38.0203 5.018 38.0463 4.446C38.0723 3.874 38.0983 3.341 38.1243 2.847H38.0073L27.9453 28.275H26.1123Z" fill="black"/>
<path d="M65.4661 28.275L61.7611 18.681H50.1781L46.4341 28.275H44.1331L55.0921 0.351H57.1201L67.8061 28.275H65.4661ZM57.3151 6.591C57.2371 6.331 57.1201 5.98 56.9641 5.538C56.8081 5.096 56.6521 4.628 56.4961 4.134C56.3401 3.64 56.1841 3.198 56.0281 2.808C55.8981 3.25 55.7551 3.705 55.5991 4.173C55.4691 4.641 55.3261 5.083 55.1701 5.499C55.0401 5.915 54.9101 6.292 54.7801 6.63L50.9581 16.653H61.0591L57.3151 6.591Z" fill="black"/>
<path d="M82.1919 14.118H92.2929V27.027C90.9149 27.573 89.4719 27.989 87.9639 28.275C86.4559 28.535 84.8309 28.665 83.0889 28.665C80.1509 28.665 77.6679 28.106 75.6399 26.988C73.6379 25.844 72.1169 24.206 71.0769 22.074C70.0369 19.942 69.5169 17.381 69.5169 14.391C69.5169 11.557 70.0889 9.074 71.2329 6.942C72.3769 4.784 74.0019 3.094 76.1079 1.872C78.2399 0.624 80.7879 0 83.7519 0C85.2859 0 86.7289 0.143 88.0809 0.428999C89.4589 0.688999 90.7459 1.105 91.9419 1.677L91.0839 3.666C89.9139 3.12 88.7049 2.717 87.4569 2.457C86.2089 2.171 84.9349 2.028 83.6349 2.028C81.1909 2.028 79.0849 2.548 77.3169 3.588C75.5489 4.628 74.1969 6.071 73.2609 7.917C72.3249 9.763 71.8569 11.921 71.8569 14.391C71.8569 17.069 72.2989 19.318 73.1829 21.138C74.0669 22.958 75.3669 24.336 77.0829 25.272C78.8249 26.208 80.9699 26.676 83.5179 26.676C84.4539 26.676 85.2989 26.637 86.0529 26.559C86.8329 26.455 87.5479 26.325 88.1979 26.169C88.8739 26.013 89.4979 25.844 90.0699 25.662V16.146H82.1919V14.118Z" fill="black"/>
<path d="M105.461 28.275H97.3096V26.871L100.274 26.442V2.301L97.3096 1.833V0.428999H105.461V1.833L102.497 2.301V26.442L105.461 26.871V28.275Z" fill="black"/>
<path d="M131.924 28.275H129.545L113.399 3.939H113.282C113.282 4.459 113.295 4.992 113.321 5.538C113.347 6.058 113.36 6.604 113.36 7.176C113.386 7.748 113.399 8.333 113.399 8.931C113.425 9.503 113.438 10.088 113.438 10.686V28.275H111.332V0.428999H113.75L129.818 24.687H129.935C129.935 24.297 129.922 23.842 129.896 23.322C129.87 22.776 129.844 22.204 129.818 21.606C129.818 21.008 129.805 20.41 129.779 19.812C129.779 19.214 129.779 18.642 129.779 18.096V0.428999H131.924V28.275Z" fill="black"/>
<path d="M157.177 28.275L153.472 18.681H141.889L138.145 28.275H135.844L146.803 0.351H148.831L159.517 28.275H157.177ZM149.026 6.591C148.948 6.331 148.831 5.98 148.675 5.538C148.519 5.096 148.363 4.628 148.207 4.134C148.051 3.64 147.895 3.198 147.739 2.808C147.609 3.25 147.466 3.705 147.31 4.173C147.18 4.641 147.037 5.083 146.881 5.499C146.751 5.915 146.621 6.292 146.491 6.63L142.669 16.653H152.77L149.026 6.591Z" fill="black"/>
<path d="M168.295 28.275H166.033V2.457H157.063V0.428999H177.265V2.457H168.295V28.275Z" fill="black"/>
<path d="M187.65 28.275H179.499V26.871L182.463 26.442V2.301L179.499 1.833V0.428999H187.65V1.833L184.686 2.301V26.442L187.65 26.871V28.275Z" fill="black"/>
<path d="M217.116 14.313C217.116 16.445 216.843 18.382 216.297 20.124C215.777 21.866 214.997 23.387 213.957 24.687C212.917 25.961 211.604 26.949 210.018 27.651C208.458 28.327 206.638 28.665 204.558 28.665C202.452 28.665 200.619 28.314 199.059 27.612C197.499 26.91 196.199 25.922 195.159 24.648C194.119 23.374 193.339 21.866 192.819 20.124C192.299 18.356 192.039 16.406 192.039 14.274C192.039 11.44 192.507 8.957 193.443 6.825C194.405 4.693 195.822 3.029 197.694 1.833C199.592 0.611 201.932 0 204.714 0C207.392 0 209.641 0.585 211.461 1.755C213.307 2.899 214.711 4.537 215.673 6.669C216.635 8.801 217.116 11.349 217.116 14.313ZM194.418 14.274C194.418 16.77 194.782 18.941 195.51 20.787C196.238 22.633 197.356 24.076 198.864 25.116C200.372 26.156 202.283 26.676 204.597 26.676C206.937 26.676 208.848 26.169 210.33 25.155C211.838 24.115 212.943 22.672 213.645 20.826C214.373 18.98 214.737 16.809 214.737 14.313C214.737 10.439 213.892 7.423 212.202 5.265C210.538 3.107 208.042 2.028 204.714 2.028C202.374 2.028 200.437 2.535 198.903 3.549C197.395 4.563 196.264 5.993 195.51 7.839C194.782 9.685 194.418 11.83 194.418 14.274Z" fill="black"/>
<path d="M244.011 28.275H241.632L225.486 3.939H225.369C225.369 4.459 225.382 4.992 225.408 5.538C225.434 6.058 225.447 6.604 225.447 7.176C225.473 7.748 225.486 8.333 225.486 8.931C225.512 9.503 225.525 10.088 225.525 10.686V28.275H223.419V0.428999H225.837L241.905 24.687H242.022C242.022 24.297 242.009 23.842 241.983 23.322C241.957 22.776 241.931 22.204 241.905 21.606C241.905 21.008 241.892 20.41 241.866 19.812C241.866 19.214 241.866 18.642 241.866 18.096V0.428999H244.011V28.275Z" fill="black"/>
<path d="M268.904 0.428999C272.258 0.428999 274.767 1.079 276.431 2.379C278.095 3.679 278.927 5.655 278.927 8.307C278.927 9.633 278.706 10.829 278.264 11.895C277.848 12.961 277.198 13.871 276.314 14.625C275.456 15.353 274.351 15.912 272.999 16.302C271.673 16.692 270.1 16.887 268.28 16.887H264.224V28.275H261.962V0.428999H268.904ZM268.67 2.418H264.224V14.937H268.046C269.84 14.937 271.374 14.742 272.648 14.352C273.948 13.936 274.923 13.26 275.573 12.324C276.249 11.362 276.587 10.062 276.587 8.424C276.587 6.344 275.95 4.823 274.676 3.861C273.402 2.899 271.4 2.418 268.67 2.418Z" fill="black"/>
<path d="M291.87 0.428999C294.106 0.428999 295.965 0.689 297.447 1.209C298.929 1.703 300.034 2.509 300.762 3.627C301.516 4.745 301.893 6.227 301.893 8.073C301.893 9.503 301.633 10.725 301.113 11.739C300.593 12.727 299.878 13.546 298.968 14.196C298.084 14.82 297.083 15.301 295.965 15.639L303.609 28.275H300.918L293.82 16.263H287.19V28.275H284.928V0.428999H291.87ZM291.675 2.418H287.19V14.313H292.455C293.963 14.313 295.25 14.079 296.316 13.611C297.382 13.143 298.188 12.454 298.734 11.544C299.28 10.608 299.553 9.477 299.553 8.151C299.553 6.721 299.267 5.59 298.695 4.758C298.123 3.926 297.252 3.328 296.082 2.964C294.912 2.6 293.443 2.418 291.675 2.418Z" fill="black"/>
<path d="M331.869 14.313C331.869 16.445 331.596 18.382 331.05 20.124C330.53 21.866 329.75 23.387 328.71 24.687C327.67 25.961 326.357 26.949 324.771 27.651C323.211 28.327 321.391 28.665 319.311 28.665C317.205 28.665 315.372 28.314 313.812 27.612C312.252 26.91 310.952 25.922 309.912 24.648C308.872 23.374 308.092 21.866 307.572 20.124C307.052 18.356 306.792 16.406 306.792 14.274C306.792 11.44 307.26 8.957 308.196 6.825C309.158 4.693 310.575 3.029 312.447 1.833C314.345 0.611 316.685 0 319.467 0C322.145 0 324.394 0.585 326.214 1.755C328.06 2.899 329.464 4.537 330.426 6.669C331.388 8.801 331.869 11.349 331.869 14.313ZM309.171 14.274C309.171 16.77 309.535 18.941 310.263 20.787C310.991 22.633 312.109 24.076 313.617 25.116C315.125 26.156 317.036 26.676 319.35 26.676C321.69 26.676 323.601 26.169 325.083 25.155C326.591 24.115 327.696 22.672 328.398 20.826C329.126 18.98 329.49 16.809 329.49 14.313C329.49 10.439 328.645 7.423 326.955 5.265C325.291 3.107 322.795 2.028 319.467 2.028C317.127 2.028 315.19 2.535 313.656 3.549C312.148 4.563 311.017 5.993 310.263 7.839C309.535 9.685 309.171 11.83 309.171 14.274Z" fill="black"/>
<path d="M333.804 35.373C333.128 35.373 332.556 35.321 332.088 35.217C331.594 35.113 331.178 34.996 330.84 34.866V32.877C331.23 33.007 331.685 33.111 332.205 33.189C332.699 33.293 333.219 33.345 333.765 33.345C334.727 33.345 335.533 33.15 336.183 32.76C336.833 32.37 337.314 31.785 337.626 31.005C337.964 30.225 338.133 29.25 338.133 28.08V0.428999H340.395V28.041C340.395 29.549 340.148 30.849 339.654 31.941C339.16 33.059 338.419 33.904 337.431 34.476C336.469 35.074 335.26 35.373 333.804 35.373Z" fill="black"/>
<path d="M363.286 28.275H347.998V0.428999H363.286V2.457H350.26V12.675H362.545V14.664H350.26V26.247H363.286V28.275Z" fill="black"/>
<path d="M381.411 2.067C379.695 2.067 378.148 2.366 376.77 2.964C375.418 3.536 374.274 4.368 373.338 5.46C372.402 6.526 371.687 7.813 371.193 9.321C370.699 10.803 370.452 12.454 370.452 14.274C370.452 16.77 370.842 18.954 371.622 20.826C372.402 22.672 373.572 24.102 375.132 25.116C376.718 26.13 378.681 26.637 381.021 26.637C382.373 26.637 383.621 26.533 384.765 26.325C385.909 26.117 386.962 25.857 387.924 25.545V27.495C386.988 27.859 385.935 28.145 384.765 28.353C383.621 28.561 382.282 28.665 380.748 28.665C377.966 28.665 375.626 28.067 373.728 26.871C371.856 25.675 370.439 23.998 369.477 21.84C368.541 19.682 368.073 17.16 368.073 14.274C368.073 12.22 368.372 10.322 368.97 8.58C369.568 6.838 370.439 5.33 371.583 4.056C372.727 2.782 374.118 1.794 375.756 1.092C377.42 0.39 379.318 0.0389995 381.45 0.0389995C382.776 0.0389995 384.05 0.168999 385.272 0.428999C386.52 0.688999 387.677 1.066 388.743 1.56L387.846 3.549C386.858 3.055 385.818 2.691 384.726 2.457C383.66 2.197 382.555 2.067 381.411 2.067Z" fill="black"/>
<path d="M401.419 28.275H399.157V2.457H390.187V0.428999H410.389V2.457H401.419V28.275Z" fill="black"/>
</svg>
