<svg width="32" height="32" viewBox="0 0 32 32" fill="none" xmlns="http://www.w3.org/2000/svg">
<path d="M14.4 7.20001C13.2016 7.20001 12.0928 7.57601 11.1808 8.21601C11.1216 7.29921 10.912 6.50401 10.5264 5.80001C11.7444 5.126 13.1171 4.78145 14.509 4.80041C15.9009 4.81937 17.2637 5.20119 18.4629 5.90814C19.662 6.61508 20.6559 7.62268 21.3464 8.83137C22.0369 10.0401 22.4001 11.408 22.4 12.8H26.0016C26.7439 12.8 27.4559 13.0948 27.9809 13.6195C28.506 14.1443 28.8012 14.8561 28.8016 15.5984V24.3984C28.8018 24.7664 28.7295 25.1308 28.5888 25.4708C28.448 25.8108 28.2417 26.1197 27.9815 26.3799C27.7213 26.6401 27.4124 26.8465 27.0724 26.9872C26.7324 27.1279 26.368 27.2002 26 27.2H17.2C16.4574 27.2 15.7452 26.905 15.2201 26.3799C14.695 25.8548 14.4 25.1426 14.4 24.4V20.8C13.287 20.8014 12.1861 20.5698 11.168 20.12C11.1888 19.576 11.2 19.0048 11.2 18.4V18.3008C11.2 18.0336 11.2 17.7264 11.1952 17.3936C12.1349 18.0501 13.2538 18.4014 14.4 18.4V15.6C14.4 14.0544 15.6544 12.8 17.2 12.8H20C20 11.3148 19.41 9.89042 18.3598 8.84021C17.3096 7.79001 15.8852 7.20001 14.4 7.20001ZM22.0336 15.2C21.6458 16.4286 20.9677 17.5457 20.0567 18.4567C19.1457 19.3677 18.0286 20.0458 16.8 20.4336V24.4C16.8 24.6208 16.9792 24.8 17.2 24.8H26C26.1061 24.8 26.2078 24.7579 26.2828 24.6829C26.3579 24.6078 26.4 24.5061 26.4 24.4V15.6C26.4 15.4939 26.3579 15.3922 26.2828 15.3172C26.2078 15.2422 26.1061 15.2 26 15.2H22.0336ZM19.4608 15.2H17.2C17.0939 15.2 16.9922 15.2422 16.9172 15.3172C16.8421 15.3922 16.8 15.4939 16.8 15.6V17.8608C17.9661 17.3057 18.9057 16.3662 19.4608 15.2ZM7.3296 3.40001C7.4624 3.51617 7.55308 3.67298 7.58752 3.84603C7.62195 4.01908 7.59821 4.19865 7.52 4.35681C7.50645 4.40362 7.49945 4.45208 7.4992 4.50081C7.4992 4.60161 7.5248 4.79361 7.7664 5.03361C7.8832 5.15041 7.9728 5.23361 8.0704 5.32481C8.1504 5.39841 8.2352 5.47521 8.3424 5.58081C8.5504 5.77921 8.7696 6.01281 8.9664 6.30561C9.3744 6.91841 9.6 7.68481 9.6 8.80001C9.6 10.1648 9.0944 11.328 8.3056 12.0416L8.408 12.16C8.856 12.7104 9.1168 13.424 9.28 14.128C9.6 15.52 9.6 17.1936 9.6 18.36V18.4C9.6 22.8592 8.9936 25.3888 8.3264 26.8352C7.9904 27.5632 7.6336 28.0272 7.3248 28.3184C7.19925 28.4389 7.06082 28.5451 6.912 28.6352C6.84386 28.6762 6.77272 28.7121 6.6992 28.7424C6.6992 28.7424 6.5184 28.8 6.4 28.8C6.2816 28.8 6.1008 28.7424 6.1008 28.7424C6.02647 28.7138 5.95519 28.6779 5.888 28.6352C5.73918 28.5451 5.60074 28.4389 5.4752 28.3184C5.1664 28.0256 4.8096 27.5632 4.4736 26.8352C3.8064 25.3888 3.2 22.8592 3.2 18.4V18.36C3.2 17.192 3.2 15.52 3.52 14.128C3.6832 13.424 3.944 12.7104 4.392 12.16C4.424 12.12 4.4592 12.08 4.4944 12.0416C3.7056 11.328 3.2 10.1648 3.2 8.80001C3.2 8.27841 3.3392 7.65601 3.5312 7.08161C3.7232 6.50561 3.992 5.91041 4.3024 5.43041C4.672 4.80641 5.192 4.28321 5.5952 3.93121C5.81625 3.7368 6.04694 3.55364 6.2864 3.38241L6.3568 3.33441C6.50351 3.23661 6.67842 3.19002 6.85435 3.20189C7.03027 3.21375 7.19734 3.2834 7.3296 3.40001Z" fill="white"/>
</svg>
