<svg width="412" height="37" viewBox="0 0 412 37" fill="none" xmlns="http://www.w3.org/2000/svg">
<path d="M9.14001 29H0.989014V27.596L3.95301 27.167V3.02598L0.989014 2.55798V1.15397H9.14001V2.55798L6.17601 3.02598V27.167L9.14001 27.596V29Z" fill="white"/>
<path d="M27.1013 29L17.0783 3.53297H16.9613C17.0133 4.00097 17.0393 4.53397 17.0393 5.13197C17.0653 5.70398 17.0783 6.31498 17.0783 6.96498C17.1043 7.58898 17.1173 8.23898 17.1173 8.91498V29H15.0113V1.15397H18.4043L27.9983 25.568H28.1543L37.8653 1.15397H41.1803V29H38.9573V8.68098C38.9573 8.10898 38.9573 7.52397 38.9573 6.92597C38.9833 6.32797 39.0093 5.74298 39.0353 5.17098C39.0613 4.59898 39.0873 4.06598 39.1133 3.57198H38.9963L28.9343 29H27.1013Z" fill="white"/>
<path d="M66.4551 29L62.7501 19.406H51.1671L47.4231 29H45.1221L56.0811 1.07598H58.1091L68.7951 29H66.4551ZM58.3041 7.31597C58.2261 7.05597 58.1091 6.70498 57.9531 6.26298C57.7971 5.82098 57.6411 5.35298 57.4851 4.85898C57.3291 4.36498 57.1731 3.92298 57.0171 3.53297C56.8871 3.97497 56.7441 4.42998 56.5881 4.89798C56.4581 5.36598 56.3151 5.80798 56.1591 6.22397C56.0291 6.63998 55.8991 7.01698 55.7691 7.35498L51.9471 17.378H62.0481L58.3041 7.31597Z" fill="white"/>
<path d="M83.1809 14.843H93.2819V27.752C91.9039 28.298 90.4609 28.714 88.9529 29C87.4449 29.26 85.8199 29.39 84.0779 29.39C81.1399 29.39 78.6569 28.831 76.6289 27.713C74.6269 26.569 73.1059 24.931 72.0659 22.799C71.0259 20.667 70.5059 18.106 70.5059 15.116C70.5059 12.282 71.0779 9.79897 72.2219 7.66697C73.3659 5.50897 74.9909 3.81897 77.0969 2.59697C79.2289 1.34898 81.7769 0.724976 84.7409 0.724976C86.2749 0.724976 87.7179 0.867975 89.0699 1.15397C90.4479 1.41397 91.7349 1.82997 92.9309 2.40197L92.0729 4.39097C90.9029 3.84498 89.6939 3.44198 88.4459 3.18197C87.1979 2.89597 85.9239 2.75297 84.6239 2.75297C82.1799 2.75297 80.0739 3.27298 78.3059 4.31298C76.5379 5.35297 75.1859 6.79597 74.2499 8.64198C73.3139 10.488 72.8459 12.646 72.8459 15.116C72.8459 17.794 73.2879 20.043 74.1719 21.863C75.0559 23.683 76.3559 25.061 78.0719 25.997C79.8139 26.933 81.9589 27.401 84.5069 27.401C85.4429 27.401 86.2879 27.362 87.0419 27.284C87.8219 27.18 88.5369 27.05 89.1869 26.894C89.8629 26.738 90.4869 26.569 91.0589 26.387V16.871H83.1809V14.843Z" fill="white"/>
<path d="M106.45 29H98.2986V27.596L101.263 27.167V3.02598L98.2986 2.55798V1.15397H106.45V2.55798L103.486 3.02598V27.167L106.45 27.596V29Z" fill="white"/>
<path d="M132.913 29H130.534L114.388 4.66398H114.271C114.271 5.18398 114.284 5.71698 114.31 6.26298C114.336 6.78298 114.349 7.32898 114.349 7.90098C114.375 8.47298 114.388 9.05797 114.388 9.65598C114.414 10.228 114.427 10.813 114.427 11.411V29H112.321V1.15397H114.739L130.807 25.412H130.924C130.924 25.022 130.911 24.567 130.885 24.047C130.859 23.501 130.833 22.929 130.807 22.331C130.807 21.733 130.794 21.135 130.768 20.537C130.768 19.939 130.768 19.367 130.768 18.821V1.15397H132.913V29Z" fill="white"/>
<path d="M158.166 29L154.461 19.406H142.878L139.134 29H136.833L147.792 1.07598H149.82L160.506 29H158.166ZM150.015 7.31597C149.937 7.05597 149.82 6.70498 149.664 6.26298C149.508 5.82098 149.352 5.35298 149.196 4.85898C149.04 4.36498 148.884 3.92298 148.728 3.53297C148.598 3.97497 148.455 4.42998 148.299 4.89798C148.169 5.36598 148.026 5.80798 147.87 6.22397C147.74 6.63998 147.61 7.01698 147.48 7.35498L143.658 17.378H153.759L150.015 7.31597Z" fill="white"/>
<path d="M169.284 29H167.022V3.18197H158.052V1.15397H178.254V3.18197H169.284V29Z" fill="white"/>
<path d="M188.639 29H180.488V27.596L183.452 27.167V3.02598L180.488 2.55798V1.15397H188.639V2.55798L185.675 3.02598V27.167L188.639 27.596V29Z" fill="white"/>
<path d="M218.105 15.038C218.105 17.17 217.832 19.107 217.286 20.849C216.766 22.591 215.986 24.112 214.946 25.412C213.906 26.686 212.593 27.674 211.007 28.376C209.447 29.052 207.627 29.39 205.547 29.39C203.441 29.39 201.608 29.039 200.048 28.337C198.488 27.635 197.188 26.647 196.148 25.373C195.108 24.099 194.328 22.591 193.808 20.849C193.288 19.081 193.028 17.131 193.028 14.999C193.028 12.165 193.496 9.68198 194.432 7.54998C195.394 5.41798 196.811 3.75398 198.683 2.55798C200.581 1.33598 202.921 0.724976 205.703 0.724976C208.381 0.724976 210.63 1.30998 212.45 2.47998C214.296 3.62398 215.7 5.26198 216.662 7.39398C217.624 9.52598 218.105 12.074 218.105 15.038ZM195.407 14.999C195.407 17.495 195.771 19.666 196.499 21.512C197.227 23.358 198.345 24.801 199.853 25.841C201.361 26.881 203.272 27.401 205.586 27.401C207.926 27.401 209.837 26.894 211.319 25.88C212.827 24.84 213.932 23.397 214.634 21.551C215.362 19.705 215.726 17.534 215.726 15.038C215.726 11.164 214.881 8.14798 213.191 5.98997C211.527 3.83197 209.031 2.75297 205.703 2.75297C203.363 2.75297 201.426 3.25998 199.892 4.27398C198.384 5.28798 197.253 6.71797 196.499 8.56397C195.771 10.41 195.407 12.555 195.407 14.999Z" fill="white"/>
<path d="M245 29H242.621L226.475 4.66398H226.358C226.358 5.18398 226.371 5.71698 226.397 6.26298C226.423 6.78298 226.436 7.32898 226.436 7.90098C226.462 8.47298 226.475 9.05797 226.475 9.65598C226.501 10.228 226.514 10.813 226.514 11.411V29H224.408V1.15397H226.826L242.894 25.412H243.011C243.011 25.022 242.998 24.567 242.972 24.047C242.946 23.501 242.92 22.929 242.894 22.331C242.894 21.733 242.881 21.135 242.855 20.537C242.855 19.939 242.855 19.367 242.855 18.821V1.15397H245V29Z" fill="white"/>
<path d="M269.893 1.15397C273.247 1.15397 275.756 1.80397 277.42 3.10398C279.084 4.40398 279.916 6.37998 279.916 9.03198C279.916 10.358 279.695 11.554 279.253 12.62C278.837 13.686 278.187 14.596 277.303 15.35C276.445 16.078 275.34 16.637 273.988 17.027C272.662 17.417 271.089 17.612 269.269 17.612H265.213V29H262.951V1.15397H269.893ZM269.659 3.14297H265.213V15.662H269.035C270.829 15.662 272.363 15.467 273.637 15.077C274.937 14.661 275.912 13.985 276.562 13.049C277.238 12.087 277.576 10.787 277.576 9.14898C277.576 7.06898 276.939 5.54797 275.665 4.58597C274.391 3.62397 272.389 3.14297 269.659 3.14297Z" fill="white"/>
<path d="M292.859 1.15397C295.095 1.15397 296.954 1.41398 298.436 1.93398C299.918 2.42798 301.023 3.23398 301.751 4.35198C302.505 5.46997 302.882 6.95198 302.882 8.79798C302.882 10.228 302.622 11.45 302.102 12.464C301.582 13.452 300.867 14.271 299.957 14.921C299.073 15.545 298.072 16.026 296.954 16.364L304.598 29H301.907L294.809 16.988H288.179V29H285.917V1.15397H292.859ZM292.664 3.14297H288.179V15.038H293.444C294.952 15.038 296.239 14.804 297.305 14.336C298.371 13.868 299.177 13.179 299.723 12.269C300.269 11.333 300.542 10.202 300.542 8.87598C300.542 7.44598 300.256 6.31498 299.684 5.48298C299.112 4.65097 298.241 4.05297 297.071 3.68897C295.901 3.32497 294.432 3.14297 292.664 3.14297Z" fill="white"/>
<path d="M332.858 15.038C332.858 17.17 332.585 19.107 332.039 20.849C331.519 22.591 330.739 24.112 329.699 25.412C328.659 26.686 327.346 27.674 325.76 28.376C324.2 29.052 322.38 29.39 320.3 29.39C318.194 29.39 316.361 29.039 314.801 28.337C313.241 27.635 311.941 26.647 310.901 25.373C309.861 24.099 309.081 22.591 308.561 20.849C308.041 19.081 307.781 17.131 307.781 14.999C307.781 12.165 308.249 9.68198 309.185 7.54998C310.147 5.41798 311.564 3.75398 313.436 2.55798C315.334 1.33598 317.674 0.724976 320.456 0.724976C323.134 0.724976 325.383 1.30998 327.203 2.47998C329.049 3.62398 330.453 5.26198 331.415 7.39398C332.377 9.52598 332.858 12.074 332.858 15.038ZM310.16 14.999C310.16 17.495 310.524 19.666 311.252 21.512C311.98 23.358 313.098 24.801 314.606 25.841C316.114 26.881 318.025 27.401 320.339 27.401C322.679 27.401 324.59 26.894 326.072 25.88C327.58 24.84 328.685 23.397 329.387 21.551C330.115 19.705 330.479 17.534 330.479 15.038C330.479 11.164 329.634 8.14798 327.944 5.98997C326.28 3.83197 323.784 2.75297 320.456 2.75297C318.116 2.75297 316.179 3.25998 314.645 4.27398C313.137 5.28798 312.006 6.71797 311.252 8.56397C310.524 10.41 310.16 12.555 310.16 14.999Z" fill="white"/>
<path d="M334.793 36.098C334.117 36.098 333.545 36.046 333.077 35.942C332.583 35.838 332.167 35.721 331.829 35.591V33.602C332.219 33.732 332.674 33.836 333.194 33.914C333.688 34.018 334.208 34.07 334.754 34.07C335.716 34.07 336.522 33.875 337.172 33.485C337.822 33.095 338.303 32.51 338.615 31.73C338.953 30.95 339.122 29.975 339.122 28.805V1.15397H341.384V28.766C341.384 30.274 341.137 31.574 340.643 32.666C340.149 33.784 339.408 34.629 338.42 35.201C337.458 35.799 336.249 36.098 334.793 36.098Z" fill="white"/>
<path d="M364.275 29H348.987V1.15397H364.275V3.18197H351.249V13.4H363.534V15.389H351.249V26.972H364.275V29Z" fill="white"/>
<path d="M382.4 2.79197C380.684 2.79197 379.137 3.09097 377.759 3.68897C376.407 4.26098 375.263 5.09298 374.327 6.18498C373.391 7.25098 372.676 8.53798 372.182 10.046C371.688 11.528 371.441 13.179 371.441 14.999C371.441 17.495 371.831 19.679 372.611 21.551C373.391 23.397 374.561 24.827 376.121 25.841C377.707 26.855 379.67 27.362 382.01 27.362C383.362 27.362 384.61 27.258 385.754 27.05C386.898 26.842 387.951 26.582 388.913 26.27V28.22C387.977 28.584 386.924 28.87 385.754 29.078C384.61 29.286 383.271 29.39 381.737 29.39C378.955 29.39 376.615 28.792 374.717 27.596C372.845 26.4 371.428 24.723 370.466 22.565C369.53 20.407 369.062 17.885 369.062 14.999C369.062 12.945 369.361 11.047 369.959 9.30498C370.557 7.56298 371.428 6.05498 372.572 4.78097C373.716 3.50698 375.107 2.51898 376.745 1.81698C378.409 1.11498 380.307 0.763975 382.439 0.763975C383.765 0.763975 385.039 0.893975 386.261 1.15397C387.509 1.41397 388.666 1.79097 389.732 2.28497L388.835 4.27398C387.847 3.77997 386.807 3.41597 385.715 3.18197C384.649 2.92197 383.544 2.79197 382.4 2.79197Z" fill="white"/>
<path d="M402.408 29H400.146V3.18197H391.176V1.15397H411.378V3.18197H402.408V29Z" fill="white"/>
</svg>
