<svg width="33" height="32" viewBox="0 0 33 32" fill="none" xmlns="http://www.w3.org/2000/svg">
<path fill-rule="evenodd" clip-rule="evenodd" d="M7.75307 19.9929C5.11474 17.8963 3.45341 14.8448 3.45341 11.4472C3.45341 5.125 9.20595 0 16.3021 0C23.3982 0 29.1507 5.125 29.1507 11.4472C29.1507 14.8448 27.4894 17.8963 24.8511 19.9929L31.8606 28.7063C32.9685 30.0836 31.8637 32 29.9618 32H2.64231C0.740439 32 -0.364383 30.0836 0.743505 28.7063L7.75307 19.9929ZM22.7937 17.4355L18.2009 11.7261C17.2689 10.5678 15.3352 10.5678 14.4033 11.7261L9.81044 17.4355C8.05143 15.9215 6.95759 13.798 6.95759 11.4472C6.95759 6.84934 11.1413 3.12195 16.3021 3.12195C21.4629 3.12195 25.6465 6.84934 25.6465 11.4472C25.6465 13.798 24.5527 15.9215 22.7937 17.4355Z" fill="white"/>
</svg>
