<svg width="71" height="46" viewBox="0 0 71 46" fill="none" xmlns="http://www.w3.org/2000/svg">
<path fill-rule="evenodd" clip-rule="evenodd" d="M0 23.0002C0 22.3372 0.263392 21.7013 0.732233 21.2325C1.20107 20.7636 1.83696 20.5002 2.5 20.5002H61.465L45.73 4.77023C45.2606 4.3008 44.9968 3.66411 44.9968 3.00023C44.9968 2.33635 45.2606 1.69966 45.73 1.23023C46.1994 0.760795 46.8361 0.49707 47.5 0.49707C48.1639 0.49707 48.8006 0.760795 49.27 1.23023L69.27 21.2302C69.5028 21.4625 69.6875 21.7383 69.8136 22.0421C69.9396 22.3458 70.0045 22.6714 70.0045 23.0002C70.0045 23.3291 69.9396 23.6547 69.8136 23.9584C69.6875 24.2621 69.5028 24.538 69.27 24.7702L49.27 44.7702C48.8006 45.2397 48.1639 45.5034 47.5 45.5034C46.8361 45.5034 46.1994 45.2397 45.73 44.7702C45.2606 44.3008 44.9968 43.6641 44.9968 43.0002C44.9968 42.3363 45.2606 41.6997 45.73 41.2302L61.465 25.5002H2.5C1.83696 25.5002 1.20107 25.2368 0.732233 24.768C0.263392 24.2992 0 23.6633 0 23.0002Z" fill="white"/>
</svg>
